<?xml version="1.0" encoding="UTF-8"?>
<svg width="300px" height="120px" viewBox="0 0 300 120" version="1.1" xmlns="http://www.w3.org/2000/svg" xmlns:xlink="http://www.w3.org/1999/xlink">
    <title>jankless</title>
    <defs>
        <path d="M27.072,82.288 C30.96,82.288 33.852,81.28 35.748,79.264 C37.644,77.248 38.592,74.176 38.592,70.048 L38.592,70.048 L38.592,31.6 L30.672,31.6 L30.672,70.264 C30.672,71.896 30.288,73.108 29.52,73.9 C28.752,74.692 27.576,75.088 25.992,75.088 C25.032,75.088 24.168,74.992 23.4,74.8 L23.4,74.8 L23.4,82 C24.408,82.192 25.632,82.288 27.072,82.288 Z M49.536,82 L50.976,72.136 L59.976,72.136 L59.976,71.992 L61.416,82 L69.336,82 L61.128,31.6 L50.4,31.6 L42.192,82 L49.536,82 Z M59.04,65.296 L51.912,65.296 L55.368,40.384 L55.512,40.384 L59.04,65.296 Z M80.208,82 L80.208,45.208 L80.352,45.208 L89.856,82 L97.992,82 L97.992,31.6 L90.936,31.6 L90.936,61.768 L90.792,61.768 L83.088,31.6 L73.152,31.6 L73.152,82 L80.208,82 Z M111.816,82 L111.816,65.944 L114.984,59.536 L121.68,82 L129.96,82 L120.384,50.104 L129.816,31.6 L121.896,31.6 L111.816,52.84 L111.816,31.6 L103.896,31.6 L103.896,82 L111.816,82 Z" id="path-1"></path>
        <path d="M197.168,82 L197.168,74.8 L184.136,74.8 L184.136,31.6 L176.216,31.6 L176.216,82 L197.168,82 Z M222.584,82 L222.584,74.8 L208.904,74.8 L208.904,59.32 L219.776,59.32 L219.776,52.12 L208.904,52.12 L208.904,38.8 L222.584,38.8 L222.584,31.6 L200.984,31.6 L200.984,82 L222.584,82 Z M237.416,82.72 C241.304,82.72 244.268,81.616 246.308,79.408 C248.348,77.2 249.368,74.032 249.368,69.904 C249.368,66.736 248.744,63.976 247.496,61.624 C246.248,59.272 243.968,56.656 240.656,53.776 C238.064,51.52 236.276,49.6 235.292,48.016 C234.308,46.432 233.816,44.728 233.816,42.904 C233.816,39.688 235.136,38.08 237.776,38.08 C239.072,38.08 240.056,38.476 240.728,39.268 C241.4,40.06 241.736,41.32 241.736,43.048 L241.736,43.048 L241.736,45.64 L249.224,45.64 L249.224,43.552 C249.224,39.472 248.252,36.34 246.308,34.156 C244.364,31.972 241.496,30.88 237.704,30.88 C233.864,30.88 230.936,31.972 228.92,34.156 C226.904,36.34 225.896,39.424 225.896,43.408 C225.896,46.336 226.544,48.964 227.84,51.292 C229.136,53.62 231.416,56.224 234.68,59.104 C237.272,61.36 239.048,63.292 240.008,64.9 C240.968,66.508 241.448,68.368 241.448,70.48 C241.448,72.256 241.1,73.54 240.404,74.332 C239.708,75.124 238.688,75.52 237.344,75.52 C234.608,75.52 233.24,73.888 233.24,70.624 L233.24,70.624 L233.24,67.168 L225.752,67.168 L225.752,70.048 C225.752,74.128 226.736,77.26 228.704,79.444 C230.672,81.628 233.576,82.72 237.416,82.72 Z M264.2,82.72 C268.088,82.72 271.052,81.616 273.092,79.408 C275.132,77.2 276.152,74.032 276.152,69.904 C276.152,66.736 275.528,63.976 274.28,61.624 C273.032,59.272 270.752,56.656 267.44,53.776 C264.848,51.52 263.06,49.6 262.076,48.016 C261.092,46.432 260.6,44.728 260.6,42.904 C260.6,39.688 261.92,38.08 264.56,38.08 C265.856,38.08 266.84,38.476 267.512,39.268 C268.184,40.06 268.52,41.32 268.52,43.048 L268.52,43.048 L268.52,45.64 L276.008,45.64 L276.008,43.552 C276.008,39.472 275.036,36.34 273.092,34.156 C271.148,31.972 268.28,30.88 264.488,30.88 C260.648,30.88 257.72,31.972 255.704,34.156 C253.688,36.34 252.68,39.424 252.68,43.408 C252.68,46.336 253.328,48.964 254.624,51.292 C255.92,53.62 258.2,56.224 261.464,59.104 C264.056,61.36 265.832,63.292 266.792,64.9 C267.752,66.508 268.232,68.368 268.232,70.48 C268.232,72.256 267.884,73.54 267.188,74.332 C266.492,75.124 265.472,75.52 264.128,75.52 C261.392,75.52 260.024,73.888 260.024,70.624 L260.024,70.624 L260.024,67.168 L252.536,67.168 L252.536,70.048 C252.536,74.128 253.52,77.26 255.488,79.444 C257.456,81.628 260.36,82.72 264.2,82.72 Z" id="path-2"></path>
    </defs>
    <g id="Page-1" stroke="none" stroke-width="1" fill="none" fill-rule="evenodd">
        <g id="jankless">
            <polygon id="rectangle" fill="#000000" points="0 0 153.256989 0 300 0 300 120 0 120"></polygon>
            <polygon id="slant" fill="#FFFFFF" points="0 0 160 0 140 120 0 120"></polygon>
            <g id="jank" fill-rule="nonzero">
                <use fill="#FFFFFF" xlink:href="#path-1"></use>
                <use fill="#000000" xlink:href="#path-1"></use>
            </g>
            <g id="less" fill-rule="nonzero" fill="#FFFFFF">
                <use xlink:href="#path-2"></use>
                <use xlink:href="#path-2"></use>
            </g>
        </g>
    </g>
</svg>