<?xml version="1.0" standalone="no"?>
<!DOCTYPE svg PUBLIC "-//W3C//DTD SVG 20010904//EN"
 "http://www.w3.org/TR/2001/REC-SVG-20010904/DTD/svg10.dtd">
<svg version="1.0" xmlns="http://www.w3.org/2000/svg"
 width="700.000000pt" height="700.000000pt" viewBox="0 0 700.000000 700.000000"
 preserveAspectRatio="xMidYMid meet">
<metadata>
Created by potrace 1.14, written by Peter Selinger 2001-2017
</metadata>
<g transform="translate(0.000000,700.000000) scale(0.100000,-0.100000)"
fill="#000000" stroke="none">
<path d="M3673 6695 c-47 -14 -108 -56 -139 -94 -11 -14 -339 -503 -729 -1086
-390 -583 -908 -1358 -1152 -1723 -245 -365 -453 -685 -465 -710 -59 -138 8
-304 151 -371 l56 -26 885 -2 c487 0 889 -2 893 -2 5 -1 6 -4 4 -8 -3 -5 -8
-44 -11 -88 -4 -44 -9 -91 -11 -105 -2 -14 -6 -50 -10 -80 -3 -30 -8 -71 -10
-90 -6 -47 -20 -179 -30 -290 -3 -30 -7 -66 -10 -80 -2 -14 -7 -59 -10 -100
-3 -41 -7 -82 -10 -90 -2 -8 -7 -49 -10 -90 -3 -41 -8 -82 -10 -90 -2 -8 -6
-46 -10 -85 -9 -105 -15 -157 -20 -185 -2 -14 -7 -58 -11 -99 -3 -41 -7 -82
-9 -92 -2 -10 -6 -50 -10 -91 -3 -40 -8 -84 -10 -98 -2 -14 -7 -54 -10 -90 -4
-36 -9 -74 -11 -85 -2 -10 -6 -60 -10 -110 -7 -111 15 -188 73 -248 63 -64
125 -91 213 -91 88 0 147 24 204 82 20 20 334 482 697 1027 364 545 888 1328
1165 1741 336 502 506 766 514 795 19 70 14 144 -14 202 -28 59 -47 82 -96
119 -73 54 -47 53 -985 54 -981 2 -908 2 -902 12 3 4 8 41 12 82 4 41 8 86 10
100 1 14 5 52 9 85 3 33 9 83 11 110 3 28 8 73 12 100 3 28 7 61 8 75 1 14 5
57 9 95 4 39 9 77 11 85 2 8 6 51 10 95 3 44 8 94 10 110 12 97 15 126 20 180
3 33 8 74 10 90 2 17 6 57 10 90 3 33 8 78 10 100 3 22 7 63 10 90 3 28 8 66
10 85 2 19 7 67 11 105 3 39 8 77 9 85 2 8 6 47 10 87 4 40 8 85 10 100 17
141 17 178 -5 237 -55 146 -211 226 -357 181z m-337 -1462 c-2 -10 -7 -49 -11
-87 -4 -38 -8 -79 -10 -90 -2 -12 -6 -57 -10 -100 -4 -43 -8 -86 -10 -95 -1
-9 -6 -50 -10 -91 -3 -41 -8 -86 -10 -100 -3 -14 -7 -56 -10 -95 -3 -38 -8
-77 -10 -85 -2 -8 -7 -49 -10 -90 -3 -41 -8 -86 -10 -100 -2 -14 -6 -52 -10
-85 -3 -33 -8 -73 -10 -90 -3 -16 -5 -61 -5 -98 -2 -142 93 -259 231 -285 35
-7 322 -10 802 -9 598 2 746 -1 742 -11 -8 -21 -529 -797 -537 -800 -4 -2 -8
-7 -8 -12 0 -6 -759 -1149 -777 -1170 -4 -5 4 106 12 160 2 14 7 50 10 80 13
129 16 157 20 190 3 19 7 60 10 90 3 30 7 71 10 90 2 19 7 64 10 100 3 36 8
76 10 90 3 14 7 52 10 85 3 33 7 74 9 90 30 219 28 325 -4 388 -29 58 -86 112
-149 141 -46 21 -52 21 -819 22 -424 0 -774 3 -777 5 -3 4 728 1111 762 1154
5 6 130 193 278 417 149 224 273 407 277 408 4 0 5 -8 4 -17z"/>
</g>
</svg>
